#!OML:ASF E:\VariousWalksJay\Project 1\Capture day 1\Session 1\Actor2.ASF
:FULLY-SPECIFIED
:DEGREES
958
root -8.24434 14.9078 24.2692 13.4419 -28.0567 0.213953
lowerback 12.9961 -4.02418 5.43121
upperback 13.8151 -5.16796 -0.780647
thorax 7.01682 -2.19906 -3.49869
lowerneck 1.05207 0.725807 2.83272
upperneck 2.15771 0.982397 -0.51615
head 0.500253 0.505819 -0.620465
rclavicle -4.81059e-014 1.39149e-015
rhumerus -20.3342 23.8725 -83.9859
rradius 71.9459
rwrist 1.92243
rhand -24.8739 -12.0065
rfingers 7.12502
rthumb 1.63335 -41.98
lclavicle -4.81059e-014 1.39149e-015
lhumerus 29.4772 -22.4231 63.0818
lradius 63.7441
lwrist 64.1488
lhand -35.5366 14.3022
lfingers 7.12502
lthumb -8.66259 44.1045
rfemur -56.1682 6.30985 24.8574
rtibia 74.2866
rfoot -30.2294 -13.1432
rtoes -1.14438
lfemur -35.6873 10.5013 -17.2214
ltibia 103.637
lfoot -15.0759 -6.03386
ltoes -26.5812
959
root -8.28727 14.8865 24.3114 12.9124 -27.7541 -0.117661
lowerback 13.1808 -4.03043 5.57967
upperback 14.0942 -5.17365 -0.756236
thorax 7.23106 -2.18297 -3.55613
lowerneck 1.71361 0.643047 2.82836
upperneck 1.96028 0.890696 -0.360753
head 0.328849 0.458794 -0.573691
rclavicle 5.00937e-014 -4.29375e-014
rhumerus -20.0781 23.9137 -83.9114
rradius 71.7677
rwrist 1.89081
rhand -24.884 -11.9804
rfingers 7.12502
rthumb 1.62356 -41.954
lclavicle 5.00937e-014 -4.29375e-014
lhumerus 29.9048 -22.6183 62.8893
lradius 63.4694
lwrist 64.1847
lhand -35.522 14.3315
lfingers 7.12502
lthumb -8.64856 44.1343
rfemur -55.2173 6.13913 25.4492
rtibia 74.5185
rfoot -30.6847 -13.3857
rtoes -1.29251
lfemur -37.6061 10.7779 -16.4798
ltibia 105.961
lfoot -15.4044 -6.3222
ltoes -26.4181
960
root -8.33071 14.863 24.3559 12.3462 -27.4639 -0.441831
lowerback 13.3496 -4.03071 5.71619
upperback 14.3793 -5.17427 -0.730138
thorax 7.46411 -2.16437 -3.60712
lowerneck 2.40797 0.560879 2.79967
upperneck 1.77374 0.801045 -0.189895
head 0.156579 0.411898 -0.518484
rclavicle -7.55382e-015 -2.8625e-014
rhumerus -19.8234 23.962 -83.8181
rradius 71.5842
rwrist 1.85419
rhand -24.9168 -11.9366
rfingers 7.12502
rthumb 1.59195 -41.9104
lclavicle -7.55382e-015 -2.8625e-014
lhumerus 30.3152 -22.8182 62.7292
lradius 63.1794
lwrist 64.2193
lhand -35.5098 14.3629
lfingers 7.12502
lthumb -8.63677 44.1662
rfemur -54.2333 5.93323 26.0415
rtibia 74.7679
rfoot -31.1565 -13.623
rtoes -1.49889
lfemur -39.5065 11.0405 -15.7853
ltibia 108.069
lfoot -15.6995 -6.62063
ltoes -26.2608
961
root -8.37474 14.8376 24.4029 11.7461 -27.1843 -0.762953
lowerback 13.5069 -4.03317 5.83648
upperback 14.6641 -5.18038 -0.697201
thorax 7.70617 -2.14971 -3.64223
lowerneck 3.13808 0.489161 2.71883
upperneck 1.60591 0.725088 0.00808026
head -0.0150937 0.370725 -0.446967
rclavicle 4.09496e-014 -5.60573e-014
rhumerus -19.5701 24.0487 -83.7015
rradius 71.3942
rwrist 1.80229
rhand -24.9655 -11.8814
rfingers 7.12502
rthumb 1.54493 -41.8555
lclavicle 4.09496e-014 -5.60573e-014
lhumerus 30.6815 -23.0028 62.6139
lradius 62.8766
lwrist 64.2608
lhand -35.502 14.3948
lfingers 7.12502
lthumb -8.62926 44.1984
rfemur -53.2141 5.69528 26.6353
rtibia 75.0324
rfoot -31.6449 -13.8615
rtoes -1.77723
lfemur -41.3874 11.2786 -15.1422
ltibia 109.954
lfoot -15.9623 -6.92518
ltoes -26.1372
962
root -8.41935 14.8103 24.4527 11.1176 -26.9231 -1.07984
lowerback 13.6499 -4.031 5.946
upperback 14.9466 -5.18269 -0.661865
thorax 7.95637 -2.13371 -3.67004
lowerneck 3.88132 0.423646 2.59302
upperneck 1.47454 0.655312 0.241671
head -0.177888 0.331574 -0.357624
rclavicle 4.85035e-014 -4.8901e-014
rhumerus -19.3283 24.1437 -83.5703
rradius 71.202
rwrist 1.74314
rhand -25.0125 -11.8264
rfingers 7.12502
rthumb 1.49945 -41.8009
lclavicle 4.85035e-014 -4.8901e-014
lhumerus 31.0147 -23.1907 62.5292
lradius 62.5629
lwrist 64.3261
lhand -35.498 14.4397
lfingers 7.12502
lthumb -8.62541 44.2435
rfemur -52.165 5.43447 27.224
rtibia 75.3107
rfoot -32.149 -14.1063
rtoes -2.13669
lfemur -43.244 11.4898 -14.5616
ltibia 111.607
lfoot -16.1872 -7.23569
ltoes -26.0065
963
root -8.46447 14.7812 24.5052 10.4695 -26.6823 -1.39679
lowerback 13.7718 -4.0257 6.04937
upperback 15.226 -5.18327 -0.62562
thorax 8.21708 -2.11684 -3.69498
lowerneck 4.61109 0.365132 2.42558
upperneck 1.39854 0.590826 0.510723
head -0.322281 0.294083 -0.250526
rclavicle -3.4191e-014 1.03368e-014
rhumerus -19.0937 24.2467 -83.4291
rradius 71.0069
rwrist 1.67124
rhand -25.0488 -11.7707
rfingers 7.12502
rthumb 1.4644 -41.7454
lclavicle -3.4191e-014 1.03368e-014
lhumerus 31.3132 -23.3794 62.4686
lradius 62.2402
lwrist 64.4182
lhand -35.5166 14.4435
lfingers 7.12502
lthumb -8.64334 44.2466
rfemur -51.0918 5.15454 27.8088
rtibia 75.6
rfoot -32.6647 -14.3618
rtoes -2.59135
lfemur -45.0752 11.6713 -14.0521
ltibia 113.022
lfoot -16.3929 -7.52025
ltoes -25.9138
964
root -8.51009 14.7505 24.5609 9.80978 -26.471 -1.71856
lowerback 13.8761 -4.01974 6.14298
upperback 15.4973 -5.18502 -0.590511
thorax 8.48004 -2.1012 -3.71647
lowerneck 5.31224 0.317979 2.22602
upperneck 1.3893 0.536227 0.803226
head -0.442339 0.260743 -0.130431
rclavicle 9.14409e-015 2.82274e-014
rhumerus -18.8746 24.372 -83.2894
rradius 70.8151
rwrist 1.58315
rhand -25.075 -11.7269
rfingers 7.12502
rthumb 1.43916 -41.7018
lclavicle 9.14409e-015 2.82274e-014
lhumerus 31.5659 -23.5612 62.4183
lradius 61.9112
lwrist 64.5452
lhand -35.5484 14.4227
lfingers 7.12502
lthumb -8.67403 44.2245
rfemur -49.9994 4.86683 28.3908
rtibia 75.8977
rfoot -33.1902 -14.6281
rtoes -3.12155
lfemur -46.8626 11.8223 -13.612
ltibia 114.191
lfoot -16.5798 -7.78097
ltoes -25.8654
965
root -8.55612 14.7187 24.6197 9.14083 -26.2893 -2.0454
lowerback 13.9617 -4.01389 6.23337
upperback 15.7573 -5.18829 -0.558039
thorax 8.74141 -2.08641 -3.73958
lowerneck 5.96487 0.280122 2.00232
upperneck 1.46636 0.487407 1.10704
head -0.528456 0.229943 -0.00193011
rclavicle 9.14409e-015 -5.1684e-015
rhumerus -18.6878 24.5073 -83.1587
rradius 70.6381
rwrist 1.48137
rhand -25.0734 -11.714
rfingers 7.12502
rthumb 1.44072 -41.6889
lclavicle 9.14409e-015 -5.1684e-015
lhumerus 31.7705 -23.7425 62.3752
lradius 61.5794
lwrist 64.7068
lhand -35.596 14.3587
lfingers 7.12502
lthumb -8.71997 44.1586
rfemur -48.8866 4.57172 28.9685
rtibia 76.2002
rfoot -33.7207 -14.9076
rtoes -3.73085
lfemur -48.6074 11.9314 -13.2443
ltibia 115.121
lfoot -16.7468 -8.00571
ltoes -25.8189
966
root -8.6024 14.6853 24.6815 8.46332 -26.1373 -2.3741
lowerback 14.0303 -4.00762 6.32178
upperback 16.0048 -5.19192 -0.530609
thorax 8.99855 -2.0717 -3.76753
lowerneck 6.55812 0.252184 1.76601
upperneck 1.63136 0.444843 1.41115
head -0.577807 0.202279 0.129683
rclavicle -9.14409e-015 -4.65156e-014
rhumerus -18.5383 24.645 -83.0423
rradius 70.4789
rwrist 1.3616
rhand -25.0483 -11.7247
rfingers 7.12502
rthumb 1.4649 -41.6994
lclavicle -9.14409e-015 -4.65156e-014
lhumerus 31.9309 -23.9306 62.3286
lradius 61.2515
lwrist 64.8953
lhand -35.6506 14.2838
lfingers 7.12502
lthumb -8.77259 44.0814
rfemur -47.7587 4.26885 29.5375
rtibia 76.5075
rfoot -34.2533 -15.1922
rtoes -4.39064
lfemur -50.2894 11.9927 -12.9538
ltibia 115.806
lfoot -16.903 -8.17351
ltoes -25.8053
967
root -8.64888 14.6509 24.7463 7.78153 -26.0149 -2.70812
lowerback 14.0831 -4.00102 6.41387
upperback 16.2386 -5.19539 -0.508472
thorax 9.24891 -2.05631 -3.80361
lowerneck 7.07154 0.23299 1.54053
upperneck 1.89376 0.407503 1.69053
head -0.583462 0.178042 0.252706
rclavicle 1.32391e-013 -1.05753e-013
rhumerus -18.4306 24.7781 -82.944
rradius 70.3396
rwrist 1.22588
rhand -25.0034 -11.7621
rfingers 7.12502
rthumb 1.5083 -41.7365
lclavicle 1.32391e-013 -1.05753e-013
lhumerus 32.049 -24.1328 62.2714
lradius 60.9325
lwrist 65.1021
lhand -35.7037 14.206
lfingers 7.12502
lthumb -8.82384 44.0016
rfemur -46.616 3.96036 30.0994
rtibia 76.8165
rfoot -34.7829 -15.4741
rtoes -5.08317
lfemur -51.9048 12.0017 -12.7364
ltibia 116.253
lfoot -17.0469 -8.26444
ltoes -25.8368
968
root -8.69542 14.6156 24.8141 7.09588 -25.9243 -3.0416
lowerback 14.1256 -3.99522 6.5034
upperback 16.4533 -5.19972 -0.491534
thorax 9.48287 -2.04182 -3.84352
lowerneck 7.49926 0.224612 1.33187
upperneck 2.25464 0.378455 1.93141
head -0.543761 0.159261 0.361435
rclavicle -3.81667e-014 2.54444e-014
rhumerus -18.3822 24.9091 -82.8706
rradius 70.2279
rwrist 1.08035
rhand -24.9509 -11.8094
rfingers 7.12502
rthumb 1.55898 -41.7835
lclavicle -3.81667e-014 2.54444e-014
lhumerus 32.1109 -24.3382 62.2167
lradius 60.631
lwrist 65.3208
lhand -35.7335 14.1664
lfingers 7.12502
lthumb -8.85263 43.9608
rfemur -45.465 3.64795 30.6462
rtibia 77.126
rfoot -35.306 -15.7426
rtoes -5.77341
lfemur -53.4393 11.952 -12.5912
ltibia 116.464
lfoot -17.1805 -8.28065
ltoes -25.8629
969
root -8.74209 14.5796 24.8844 6.40846 -25.8545 -3.37596
lowerback 14.1569 -3.98931 6.59792
upperback 16.6493 -5.20324 -0.476736
thorax 9.70124 -2.02672 -3.88833
lowerneck 7.84727 0.224407 1.1462
upperneck 2.69395 0.355713 2.13067
head -0.465916 0.14501 0.453575
rclavicle -5.28767e-014 3.18055e-014
rhumerus -18.3832 25.0237 -82.8137
rradius 70.1353
rwrist 0.92789
rhand -24.8941 -11.869
rfingers 7.12502
rthumb 1.61389 -41.8427
lclavicle -5.28767e-014 3.18055e-014
lhumerus 32.1239 -24.5642 62.1646
lradius 60.3531
lwrist 65.5277
lhand -35.7473 14.1727
lfingers 7.12502
lthumb -8.86596 43.9664
rfemur -44.3056 3.32297 31.181
rtibia 77.4357
rfoot -35.8171 -15.9926
rtoes -6.46822
lfemur -54.8907 11.8326 -12.5071
ltibia 116.45
lfoot -17.3013 -8.20972
ltoes -25.8676
970
root -8.7888 14.5433 24.9572 5.72567 -25.8037 -3.70313
lowerback 14.1714 -3.98419 6.69191
upperback 16.8237 -5.20758 -0.464841
thorax 9.90325 -2.01232 -3.93594
lowerneck 8.11091 0.232535 0.98879
upperneck 3.20326 0.3407 2.281
head -0.351919 0.13622 0.525745
rclavicle 6.12257e-014 -2.70347e-014
rhumerus -18.4384 25.1207 -82.7781
rradius 70.0623
rwrist 0.78482
rhand -24.8395 -11.9233
rfingers 7.12502
rthumb 1.66663 -41.8966
lclavicle 6.12257e-014 -2.70347e-014
lhumerus 32.081 -24.8093 62.1225
lradius 60.1033
lwrist 65.7043
lhand -35.7392 14.2154
lfingers 7.12502
lthumb -8.85815 44.0095
rfemur -43.1487 2.98229 31.6938
rtibia 77.7436
rfoot -36.3122 -16.2142
rtoes -7.16594
lfemur -56.2534 11.6371 -12.4872
ltibia 116.215
lfoot -17.4129 -8.03809
ltoes -25.798
971
root -8.83538 14.5068 25.0321 5.04907 -25.7633 -4.02127
lowerback 14.1742 -3.98129 6.78869
upperback 16.9745 -5.21364 -0.455111
thorax 10.0831 -1.99901 -3.98682
lowerneck 8.30048 0.246939 0.84833
upperneck 3.75855 0.331302 2.39958
head -0.211414 0.131331 0.585109
rclavicle 2.8625e-014 -8.74653e-015
rhumerus -18.5528 25.1906 -82.7676
rradius 70.0081
rwrist 0.666652
rhand -24.789 -11.9683
rfingers 7.12502
rthumb 1.71534 -41.9412
lclavicle 2.8625e-014 -8.74653e-015
lhumerus 31.9781 -25.0665 62.1061
lradius 59.8865
lwrist 65.8568
lhand -35.6997 14.3027
lfingers 7.12502
lthumb -8.82001 44.0984
rfemur -41.9993 2.61854 32.1826
rtibia 78.0479
rfoot -36.7852 -16.4065
rtoes -7.86592
lfemur -57.5239 11.3673 -12.524
ltibia 115.767
lfoot -17.5209 -7.74035
ltoes -25.7351
972
root -8.8818 14.471 25.109 4.38488 -25.7322 -4.32862
lowerback 14.1599 -3.97992 6.88937
upperback 17.1016 -5.22076 -0.448609
thorax 10.2434 -1.9861 -4.04317
lowerneck 8.43569 0.267212 0.715511
upperneck 4.33055 0.327841 2.49977
head -0.0571387 0.129886 0.637448
rclavicle -1.90833e-014 2.46493e-014
rhumerus -18.7247 25.2276 -82.7839
rradius 69.9722
rwrist 0.593586
rhand -24.7392 -12.0174
rfingers 7.12502
rthumb 1.76348 -41.9898
lclavicle -1.90833e-014 2.46493e-014
lhumerus 31.8216 -25.3372 62.1127
lradius 59.7014
lwrist 65.985
lhand -35.6284 14.4381
lfingers 7.12502
lthumb -8.75118 44.2367
rfemur -40.8624 2.23175 32.6441
rtibia 78.3438
rfoot -37.2207 -16.5799
rtoes -8.62586
lfemur -58.6989 11.0267 -12.6084
ltibia 115.114
lfoot -17.6024 -7.3387
ltoes -25.5914
